# xmcd
# 
# Track frame offsets:
#     150
#     10743
#     26086
#     40132
#     44408
# 
# Disc length: 816
# 
# Revision: 0
# Processed by: cddbd v1.5.2PL0 Copyright (c) Steve Scherf et al.
# Submitted via: fre:ac v1.1beta1pre2
# 
DISCID=35032e05
DTITLE=Jerk Circus - Everything Is a Travesty With You
DYEAR=2014
DGENRE=Punk
TTITLE0=There's No Such Thing as Purity
TTITLE1=Eighteen
TTITLE2=Away from Me
TTITLE3=Look Me in the Face
TTITLE4=Always Wonder
EXTD=
EXTT0=
EXTT1=
EXTT2=
EXTT3=
EXTT4=
PLAYORDER=
